<svg id="Layer_1" data-name="Layer 1" xmlns="http://www.w3.org/2000/svg" viewBox="0 0 1450 1450"><defs><style>.cls-1{fill:#2e539c;}</style></defs><ellipse class="cls-1" cx="611.21" cy="104.24" rx="14.4" ry="14.37"/><ellipse class="cls-1" cx="533.65" cy="210.35" rx="20.01" ry="19.97"/><ellipse class="cls-1" cx="745.22" cy="179.51" rx="20.01" ry="19.97"/><ellipse class="cls-1" cx="939.94" cy="233.76" rx="20.01" ry="19.97"/><ellipse class="cls-1" cx="1109.15" cy="345.84" rx="20.01" ry="19.97"/><ellipse class="cls-1" cx="1249.42" cy="725.27" rx="20.01" ry="19.97"/><ellipse class="cls-1" cx="1222.45" cy="523.46" rx="20.01" ry="19.97"/><ellipse class="cls-1" cx="1221.95" cy="926.92" rx="20.01" ry="19.97"/><ellipse class="cls-1" cx="1108.66" cy="1105.58" rx="20.01" ry="19.97"/><ellipse class="cls-1" cx="940.43" cy="1217.51" rx="20.01" ry="19.97"/><ellipse class="cls-1" cx="745.22" cy="1272.82" rx="20.01" ry="19.97"/><ellipse class="cls-1" cx="534.32" cy="1241.99" rx="20.01" ry="19.97"/><ellipse class="cls-1" cx="356.78" cy="1134.31" rx="20.01" ry="19.97"/><ellipse class="cls-1" cx="240.8" cy="963.98" rx="20.01" ry="19.97"/><ellipse class="cls-1" cx="188.32" cy="765.75" rx="20.01" ry="19.97"/><ellipse class="cls-1" cx="188.32" cy="685.48" rx="20.01" ry="19.97"/><ellipse class="cls-1" cx="241.29" cy="486.76" rx="20.01" ry="19.97"/><ellipse class="cls-1" cx="357.53" cy="316.92" rx="20.01" ry="19.97"/><ellipse class="cls-1" cx="476.78" cy="349.65" rx="26.95" ry="26.89"/><ellipse class="cls-1" cx="640.1" cy="287.49" rx="26.95" ry="26.89"/><ellipse class="cls-1" cx="806.37" cy="294.83" rx="26.95" ry="26.89"/><ellipse class="cls-1" cx="962.34" cy="352.76" rx="26.95" ry="26.89"/><ellipse class="cls-1" cx="1086.43" cy="476.59" rx="26.95" ry="26.89"/><ellipse class="cls-1" cx="1144.79" cy="633.71" rx="26.95" ry="26.89"/><ellipse class="cls-1" cx="1144.79" cy="816.26" rx="26.95" ry="26.89"/><ellipse class="cls-1" cx="1085.2" cy="973.79" rx="26.95" ry="26.89"/><ellipse class="cls-1" cx="961.16" cy="1095.2" rx="26.95" ry="26.89"/><ellipse class="cls-1" cx="806.37" cy="1155.53" rx="26.95" ry="26.89"/><ellipse class="cls-1" cx="639.85" cy="1162.96" rx="26.95" ry="26.89"/><ellipse class="cls-1" cx="476.81" cy="1099.2" rx="26.95" ry="26.89"/><ellipse class="cls-1" cx="354.12" cy="980.16" rx="26.95" ry="26.89"/><ellipse class="cls-1" cx="293.33" cy="823.43" rx="26.95" ry="26.89"/><ellipse class="cls-1" cx="293.33" cy="626.52" rx="26.95" ry="26.89"/><ellipse class="cls-1" cx="369.32" cy="725.27" rx="44.76" ry="44.67"/><ellipse class="cls-1" cx="388.54" cy="592.02" rx="44.76" ry="44.67"/><ellipse class="cls-1" cx="465.92" cy="478.52" rx="44.76" ry="44.67"/><ellipse class="cls-1" cx="578.41" cy="406.94" rx="44.76" ry="44.67"/><ellipse class="cls-1" cx="708.46" cy="386.39" rx="44.76" ry="44.67"/><ellipse class="cls-1" cx="839.56" cy="406.94" rx="44.76" ry="44.67"/><ellipse class="cls-1" cx="953.29" cy="478.52" rx="44.76" ry="44.67"/><ellipse class="cls-1" cx="1023.11" cy="591.79" rx="44.76" ry="44.67"/><ellipse class="cls-1" cx="1055.47" cy="724.76" rx="44.76" ry="44.67"/><ellipse class="cls-1" cx="1023.11" cy="858.16" rx="44.76" ry="44.67"/><ellipse class="cls-1" cx="952.81" cy="968.91" rx="44.76" ry="44.67"/><ellipse class="cls-1" cx="838.84" cy="1045.35" rx="44.76" ry="44.67"/><ellipse class="cls-1" cx="711.56" cy="1063.48" rx="44.76" ry="44.67"/><ellipse class="cls-1" cx="580.61" cy="1042.2" rx="44.76" ry="44.67"/><ellipse class="cls-1" cx="464.46" cy="968.91" rx="44.76" ry="44.67"/><ellipse class="cls-1" cx="388.54" cy="859.76" rx="44.76" ry="44.67"/><ellipse class="cls-1" cx="354.16" cy="469.56" rx="26.95" ry="26.89"/><ellipse class="cls-1" cx="387.71" cy="192.14" rx="14.4" ry="14.37"/><ellipse class="cls-1" cx="221.18" cy="362.27" rx="14.4" ry="14.37"/><ellipse class="cls-1" cx="119.24" cy="578.45" rx="14.4" ry="14.37"/><ellipse class="cls-1" cx="119.24" cy="873.81" rx="14.4" ry="14.37"/><ellipse class="cls-1" cx="220.78" cy="1088.96" rx="14.4" ry="14.37"/><ellipse class="cls-1" cx="387.7" cy="1259.7" rx="14.4" ry="14.37"/><ellipse class="cls-1" cx="610.94" cy="1345.76" rx="14.4" ry="14.37"/><ellipse class="cls-1" cx="857.14" cy="1338.82" rx="14.4" ry="14.37"/><ellipse class="cls-1" cx="1069.95" cy="1237.49" rx="14.4" ry="14.37"/><ellipse class="cls-1" cx="1236.87" cy="1077.16" rx="14.4" ry="14.37"/><ellipse class="cls-1" cx="1330.76" cy="848.83" rx="14.4" ry="14.37"/><ellipse class="cls-1" cx="1330.76" cy="602.44" rx="14.4" ry="14.37"/><ellipse class="cls-1" cx="1236.17" cy="373.41" rx="14.4" ry="14.37"/><ellipse class="cls-1" cx="1067.87" cy="213.78" rx="14.4" ry="14.37"/><ellipse class="cls-1" cx="856.44" cy="112.45" rx="14.4" ry="14.37"/></svg>